<svg xmlns="http://www.w3.org/2000/svg" xmlns:xlink="http://www.w3.org/1999/xlink" viewBox="0 0 137.96 98.16"><defs><style>.cls-1{fill:none;}.cls-2{clip-path:url(#clip-path);}.cls-3{clip-path:url(#clip-path-2);}.cls-4{fill:#6d3d32;}.cls-5{fill:#fff;}</style><clipPath id="clip-path" transform="translate(-2 -1.47)"><rect class="cls-1" width="141.73" height="100.63"/></clipPath><clipPath id="clip-path-2" transform="translate(-2 -1.47)"><rect class="cls-1" x="2" y="1.48" width="137.96" height="98.15"/></clipPath></defs><g id="Layer_2" data-name="Layer 2"><g id="Layer_1-2" data-name="Layer 1"><g class="cls-2"><g class="cls-3"><path class="cls-4" d="M2,68.45S2,99.63,33.18,99.63H128s12,0,12-12V1.47H14s-12,0-12,12Z" transform="translate(-2 -1.47)"/><path class="cls-5" d="M35.36,31.49c0,1.94-.57,2.88-2.37,2.88s-2.38-.94-2.38-2.88V18.31c0-1.94.58-2.88,2.38-2.88s2.37.94,2.37,2.88Zm4.47.11V18.2c0-3.67-2.16-6.66-6.84-6.66s-6.84,3-6.84,6.66V31.6c0,3.67,2.16,6.66,6.84,6.66s6.84-3,6.84-6.66" transform="translate(-2 -1.47)"/><path class="cls-5" d="M22,31.6c0,3.67-2.16,6.66-6.62,6.66-4.68,0-6.84-3-6.84-6.66V18.2c0-3.67,2.16-6.66,6.84-6.66,4.46,0,6.62,3.24,6.62,7.13v1.91H17.58v-2c0-2.19-1-3.13-2.16-3.13-1.8,0-2.38.94-2.38,2.88V31.49c0,1.94.58,2.88,2.38,2.88,1.62,0,2.16-.94,2.16-2.63V28.61H22Z" transform="translate(-2 -1.47)"/></g><polygon class="cls-5" points="55.55 36.42 51.67 36.42 45.98 20.19 45.91 20.19 45.91 36.42 41.88 36.42 41.88 10.43 46.02 10.43 51.45 25.3 51.52 25.3 51.52 10.43 55.55 10.43 55.55 36.42"/><polygon class="cls-5" points="81.98 14.32 73.99 14.32 73.99 21.01 79.96 21.01 79.96 24.9 73.99 24.9 73.99 36.42 69.52 36.42 69.52 10.43 81.98 10.43 81.98 14.32"/><polygon class="cls-5" points="98.03 36.42 85.58 36.42 85.58 10.43 97.53 10.43 97.53 14.32 90.04 14.32 90.04 21.01 95.8 21.01 95.8 24.9 90.04 24.9 90.04 32.53 98.03 32.53 98.03 36.42"/><g class="cls-3"><path class="cls-5" d="M113,19.57c0,3.1-.9,4-3.31,4H108.1v-8h1.58c2.41,0,3.31.9,3.31,4m4.47,0c0-5.54-2.56-7.67-7.56-7.67h-6.27v26h4.47V27.24a21.88,21.88,0,0,0,2.3-.11l3.17,10.77h4.53l-3.77-11.78c1.51-.68,3.13-2.37,3.13-6.55" transform="translate(-2 -1.47)"/></g><polygon class="cls-5" points="132.18 36.42 119.72 36.42 119.72 10.43 131.67 10.43 131.67 14.32 124.19 14.32 124.19 21.01 129.94 21.01 129.94 24.9 124.19 24.9 124.19 32.53 132.18 32.53 132.18 36.42"/><rect class="cls-5" x="60.31" y="10.43" width="4.46" height="25.99"/></g></g></g></svg>